<svg version="1.2" xmlns="http://www.w3.org/2000/svg" viewBox="0 0 4958 1329" width="4958" height="1329">
	<title>QuickLatexExercise-svg</title>
	<style>
		.s0 { fill: #ffffff;stroke: #000000;stroke-width: 5 } 
	</style>
	<path id="MJMAINB-41" fill-rule="evenodd" class="s0" d="m148 841q-9-1.5-66-1.5-53 0-57.5 1.5h-4.5v-31h26q26 0 26-1 122-309 126.5-312.5 3-4.5 18.5-4.5 14.5 0 18.5 4.5 2 1.5 33.5 79.5 31.5 78 62.5 156l30.5 77q0 1 26 1h26v31h-5.5q-10.5-1.5-79.5-1.5-74.5 0-86.5 1.5h-6.5v-31h22.5q22 0 22-0.5l-22-56h-127.5l-11 27.5q-11 27.5-11.5 28 0 1 22 1h22.5v31zm47-118.5l51-0.5-26-63.5q-25-63-26-63-50.5 126-50.5 127zm408.5-55q0-6.5 7-10h318.5q7.5 4 7.5 10 0 5.5-7 9.5l-159 0.5h-159q-8-2.5-8-10zm0 97q0-7.5 8-10h318q7 5 7 10 0 6.5-7.5 10h-318.5q-7-3.5-7-10zm562-63.5h1408v30h-1408zm687.5-502.5q0-23.5 16-38.5 16-15 37.5-15.5 8.5 0.5 24.5 4 16 3.5 28 6 12 2.5 13 3.5 9 4 9 14 0 9-6.5 17-6.5 8-17.5 8-10.5 0-27.5-14.5-17-14.5-30-15-13-0.5-19.5 7-6.5 7.5-7 14.5 0 22 49.5 82.5 33.5 42 33.5 85.5 0 61.5-30.5 106-30.5 44.5-67.5 45h-3.5q-35.5 0-57.5-23-22-23-23.5-58.5 0-66.5 57.5-114.5 20-15.5 50.5-26 0-0.5-3.5-7.5-3.5-7-7.5-16-4-9-8-20-4-11-6.5-22.5-2.5-11.5-3-21.5zm-41.5 239.5q0 23.5 12 37.5 12 14 34 14 14.5 0 26-12 11.5-12 17.5-30 6-18 9-33.5 3-15.5 3.5-27 0-17.5-3.5-33-3.5-15.5-7-23-3.5-7.5-13-28l-5 2q-22 7.5-38 27-16 19.5-23 43-7 23.5-9.5 38.5-2.5 15-3 24.5zm-550 787.5q-17 0-17-16.5v-5.5l6.5-14q37.5-79 54.5-136.5l4-12h-16q-19 0-27 1.5-8 1.5-19.5 9.5-5.5 3.5-11 9-5.5 5.5-9.5 10.5-4 5-4.5 6-1 0.5-7.5 0.5-9.5 0-9.5-5 0-3 9.5-17.5 9.5-14.5 27.5-31 18-16.5 35.5-19 3.5-1 112.5-1 80 0 82 0.5 10 3.5 10 14 0 15.5-16 21-3 1-34.5 1h-32l-1.5 8.5q-6 36-6 59.5 0 26 4.5 46.5 4.5 20.5 9.5 32 5 11.5 5 14 0 8.5-7 16-7 7.5-18 7.5-5.5 0-9-1.5-3.5-1.5-8-12-4.5-10.5-8-30-0.5-4.5-0.5-22 0-24.5 4.5-52.5 4.5-28 9-46 4.5-18 5-20h-49l-0.5 2q0 1.5-9.5 39.5-9.5 38-21.5 80.5-12 42.5-15.5 48.5-5.5 14-21.5 14zm362-130.5q0-6.5 7-10h149.5v-75l0.5-75q5-6.5 9.5-6.5 6.5 0 10 7.5v149h149q7.5 4 7.5 10 0 6-7.5 10h-149v149q-4 7-9 7h-2q-6 0-9-7v-149h-149.5q-7-3.5-7-10zm511-198.5q0-5 2-11.5 2-6.5 6-6.5 0.5 0 36-2.5 35.5-2.5 36.5-3 6 0 6 4.5 0 4.5-17 71.5-4 17-8.5 35-4.5 18-7.5 27l-2 9.5q0 1.5 3-1.5 24.5-20 50.5-20 31 0 50 23 19 23 19.5 58 0 55.5-39.5 100.5-39.5 45-85 45-25 0-45.5-19-20.5-19-21-61.5v-4.5q0-10.5 4-29 4-18.5 24.5-98.5 25-98.5 25-104.5 0-6-19-7-2.5 0-4 0c-3.3 0-8 0-9 0q-1.5 0-3.5-1.5-2-1.5-1.5-3.5zm131.5 161v-3q0-37-30.5-37-8.5 0-17.5 4-9 4-16.5 10.5-7.5 6.5-13 12-5.5 5.5-9 11l-3 4-10.5 43q-11 43-11 61 0 24 12 36 8 8 20 8 16.5 0 33.5-16 12.5-11.5 20-28 7.5-16.5 16.5-52.5 9-36 9-53zm87.3-133.4q-9.6 0-15.2-6.4-5.7-6.4-5.7-15.5 0-25.1 18.7-43.5 18.8-18.4 46.7-18.4 32.2 0 53.8 19.8 21.5 19.8 21.9 51.2 0 15.3-7.1 29-7.1 13.8-17 24.1-9.9 10.2-28.3 26.1-12.7 11-35.3 32.6l-20.9 19.8 26.9 0.3q55.5 0 59-1.7 2.5-0.8 8.5-31.5v-1.1h14.2v1.1q-0.4 1-4.6 32.2-4.3 31.1-5.3 32.5v1.1h-131.2v-11q0-2.5 2.1-5.3 2.1-2.8 10.6-12.4 10.3-11.3 17.7-19.8 3.2-3.5 12-13.1 8.9-9.5 12.1-13 3.1-3.6 10.2-11.7 7.1-8.1 9.9-12 2.8-3.9 8.1-10.6 5.3-6.8 7.5-11.4 2.1-4.6 5.3-10.2 3.1-5.7 4.6-11.3 1.4-5.7 2.4-10.6 1.1-5 1.1-11.7 0-22.3-12-38.5-12-16.3-34.3-16.3-11.7 0-20.5 6-8.9 6-12.4 11.7-3.5 5.6-3.5 6.7 0 0.3 1.7 0.3 6.4 0 13.1 5 6.7 4.9 6.7 16.3 0 8.8-5.6 14.8-5.7 6-15.9 6.4zm447.2-242.6q0-20.5 8.5-37 8.5-16.5 21-25.5 12.5-9 24.5-14 12-5 21-5 1 0 4 0 3 0 5-0.5 19.5 0 36.5 7.5 17 7.5 48.5 27.5l25 16q29.5 17.5 55 17.5 28 0 48-14.5 20-14.5 22.5-39.5 0-5.5 2-10 2-4.5 5-4.5 7 0 7 15.5 0 33-23.5 57-23.5 24-60 24.5-20.5 0-43.5-10.5-23-10.5-40-23.5-17-13-40-23.5-23-10.5-42-11-30 0-49.5 16.5-19.5 16.5-21 37.5-1 14.5-7 14.5-7 0-7-15zm0 117q0-20.5 8.5-37 8.5-16.5 21-25.5 12.5-9 24.5-14 12-5 21-5 1 0 4 0 3 0 5-0.5 19.5 0 36.5 7.5 17 7.5 48.5 27.5l25 16q29.5 17.5 55 17.5 28 0 48-14.5 20-14.5 22.5-39.5 0-14.5 7-14.5 7 0 7 16 0 32-23.5 56.5-23.5 24.5-60 24.5-20.5 0-43.5-10.5-23-10.5-40-23.5-17-13-40-23.5-23-10.5-42-11-30 0-49.5 16.5-19.5 16.5-21 37.5-1.5 14.5-7 14.5-7 0-7-15zm853.5 512.5q0 1.5-3 4.5h-15.5q-1-1-14-13.5-13-12.5-22.5-21.5-9.5-9-27-30.5-17.5-21.5-31-40.5-13.5-19-31.5-50.5-18-31.5-31-62.5-13-31-27.5-74.5-14.5-43.5-22.5-88-8-44.5-14.5-101.5-6.5-57-6-117 0-355.5 182-555 11.5-12.5 21.5-22 10-9.5 16.5-16 6.5-6.5 7.5-6.5h15.5q3 3 3 4.5 0 2.5-10 13-10 10.5-26 29.5-16 19-36 47.5-20 28.5-40.5 71.5-20.5 43-38 95.5-17.5 52.5-30 126-12.5 73.5-16 158-1 19-1 54.5 0 194.5 47 340 47 145.5 145 247 5.5 6 5.5 8zm80-610h565v30h-565zm332-341.5q-24 38-60 38-39 0-64-29.5-25-29.5-30-63-1-8-1-20v-4q0-46.5 34.5-81 30-30 66-30 1 0 3 0 2 0 4 0.5h2q6 0 12.5 1 6.5 1 18.5 6 12 5 23.5 16 11.5 11 21.5 29.5 21.5 44 21.5 113 0 70-30 118.5-17.5 28-42 43.5-24.5 15.5-52 16-30.5 0-50-14.5-19.5-14.5-20-43-0.5-28.5 26.5-28 11 0 18.5 7 7.5 7 7.5 19.5 0 9-4.5 15.5-4.5 6.5-8 8-3.5 1.5-6.5 2.5l-2 0.5q0 1 3.5 3 3.5 2 13 5 9.5 3 21 2.5h3q30 0 50.5-32 19.5-28 19.5-97zm-54 19.5q24 0 38.5-24.5 14.5-24.5 15-66.5 0-39-4-56-1-5-3-10-2-5-7-13-5-8-15-13.5-10-5.5-23.5-5-19 0-32.5 13.5-10.5 11-13.5 26-3 15-3.5 52.5 0 41.5 2.5 56 2.5 14.5 10 23.5 12.5 17 36 17zm-141.5 516l-6.5 2.5q-7 2.5-20 5-13 2.5-29 3.5h-9.5v-23h9.5q23.5-1 43.5-7.5 20-6.5 28-12 8-5.5 14-11 1-1.5 6-1.5 4.5 0 8.5 3v149.5l0.5 150q3.5 3.5 6 4.5 2.5 1 12 2 9.5 1 31 1h13v23h-5.5q-10.5-1.5-79.5-1.5-68 0-78.5 1.5h-6v-23c7.3 0 26.7 0 32 0q8 0 12.5-0.5 4.5-0.5 8-1.5 3.5-1 4-1 0.5 0 3-2.5 2.5-2.5 3-2zm194-3.5q28-40.5 76.5-40.5 24 0 48 13 24 13 39 46 18.5 41.5 18.5 114 0 77.5-21.5 118.5-10 21-27.5 33.5-17.5 12.5-30.5 15.5-13 3-25.5 3.5-13 0-26-3-13-3-30.5-16-17.5-13-27.5-33.5-21.5-41-21.5-118.5 0-87 28.5-132.5zm112.5-6q-15-16-35.5-16-21 0-36 16-12.5 13-16.5 36-4 23-4 96 0 79 4 104 4 25 18 39.5 14 15 34.5 15 20 0 34-15 14.5-15 18-42 3.5-27 4-101.5 0-72.5-4-95.5-4-23-16.5-36.5zm199-763q0-4 1.5-5 1.5-1 6.5-1h10.5q1 1 14 13.5 13 12.5 22.5 21.5 9.5 9 27 30.5 17.5 21.5 31 40.5 13.5 19 31.5 50.5 18 31.5 31 62 13 30.5 27.5 74.5 14.5 44 22.5 88 8 44 14.5 101.5 6.5 57.5 6 117 0 58.5-3.5 99-23.5 286-178.5 456.5-11.5 12.5-21.5 22-10 9.5-16.5 16-6.5 6.5-7.5 6.5h-7.5q-6.5 0-8.5-1-2-1-2.5-5 27-27 53-62 144-191.5 144-532 0-101-13-188.5-13-87.5-32-147-19-59.5-46.5-112-27.5-52.5-50-81.5-22.5-29-49.5-58-1-1-2-2-1-1-1.5-2-0.5-1-1.5-1.5zm391.9-26.1q-9.5 0-15.2-6.3-5.6-6.4-5.6-15.6 0-25.1 18.7-43.5 18.7-18.4 46.7-18.4 32.1 0 53.7 19.8 21.6 19.8 21.9 51.3 0 15.2-7 29-7.1 13.8-17 24-9.9 10.3-28.3 26.2-12.7 10.9-35.4 32.5l-20.8 19.8 26.9 0.4q55.5 0 59-1.8 2.5-0.7 8.5-31.5v-1h14.1v1q-0.3 1.1-4.6 32.2-4.2 31.1-5.3 32.5v1.1h-131.1v-11q0-2.4 2.1-5.3 2.1-2.8 10.6-12.3 10.2-11.4 17.7-19.8 3.1-3.6 12-13.1 8.8-9.6 12-13.1 3.2-3.5 10.3-11.7 7-8.1 9.9-12 2.8-3.9 8.1-10.6 5.3-6.7 7.4-11.3 2.1-4.6 5.3-10.3 3.2-5.6 4.6-11.3 1.4-5.6 2.5-10.6 1-4.9 1-11.7 0-22.2-12-38.5-12-16.3-34.3-16.3-11.6 0-20.5 6.1-8.8 6-12.3 11.6-3.6 5.7-3.6 6.7 0 0.4 1.8 0.4 6.3 0 13.1 4.9 6.7 5 6.7 16.3 0 8.8-5.7 14.9-5.6 6-15.9 6.3z"/>
</svg>